<svg xmlns="http://www.w3.org/2000/svg" xmlns:xlink="http://www.w3.org/1999/xlink" width="500" zoomAndPan="magnify" viewBox="0 0 375 374.999991" height="500" preserveAspectRatio="xMidYMid meet" version="1.0"><defs><g/></defs><rect x="-37.5" width="450" fill="#ffffff" y="-37.499999" height="449.999989" fill-opacity="1"/><rect x="-37.5" width="450" fill="#2f7d82" y="-37.499999" height="449.999989" fill-opacity="1"/><g fill="#ffffff" fill-opacity="1"><g transform="translate(13.327875, 309.649961)"><g><path d="M 167.046875 -209.171875 C 167.046875 -192.890625 163.035156 -178.082031 155.015625 -164.75 C 146.992188 -151.414062 136.257812 -140.269531 122.8125 -131.3125 C 129.894531 -129.894531 136.03125 -127.472656 141.21875 -124.046875 C 146.40625 -120.628906 150.707031 -116.441406 154.125 -111.484375 C 157.550781 -106.535156 160.148438 -100.929688 161.921875 -94.671875 C 163.691406 -88.421875 164.578125 -81.875 164.578125 -75.03125 C 164.578125 -61.582031 161.445312 -49.84375 155.1875 -39.8125 C 148.9375 -29.789062 140.859375 -21.535156 130.953125 -15.046875 C 121.046875 -8.554688 110.015625 -3.71875 97.859375 -0.53125 C 85.710938 2.65625 73.617188 4.25 61.578125 4.25 C 54.972656 4.25 48.367188 3.773438 41.765625 2.828125 C 35.160156 1.890625 28.90625 0.238281 23 -2.125 C 20.875 -2.832031 19.101562 -5.722656 17.6875 -10.796875 C 16.28125 -15.867188 15.160156 -22.0625 14.328125 -29.375 C 13.503906 -36.6875 12.851562 -44.585938 12.375 -53.078125 C 11.90625 -61.578125 11.550781 -69.71875 11.3125 -77.5 C 11.082031 -85.289062 10.96875 -92.132812 10.96875 -98.03125 C 10.96875 -103.9375 10.96875 -108.066406 10.96875 -110.421875 C 10.96875 -118.679688 10.96875 -127 10.96875 -135.375 C 10.96875 -143.75 11.203125 -152.066406 11.671875 -160.328125 C 11.671875 -162.453125 11.726562 -165.753906 11.84375 -170.234375 C 11.96875 -174.722656 12.085938 -179.738281 12.203125 -185.28125 C 12.328125 -190.820312 12.566406 -196.660156 12.921875 -202.796875 C 13.273438 -208.929688 13.742188 -214.648438 14.328125 -219.953125 C 14.921875 -225.265625 15.75 -229.804688 16.8125 -233.578125 C 17.875 -237.359375 19.113281 -239.722656 20.53125 -240.671875 C 25.957031 -244.210938 31.972656 -247.570312 38.578125 -250.75 C 45.179688 -253.9375 52.019531 -256.707031 59.09375 -259.0625 C 66.175781 -261.425781 73.253906 -263.316406 80.328125 -264.734375 C 87.410156 -266.148438 94.140625 -266.859375 100.515625 -266.859375 C 109.242188 -266.859375 117.675781 -265.617188 125.8125 -263.140625 C 133.957031 -260.660156 141.035156 -256.941406 147.046875 -251.984375 C 153.066406 -247.035156 157.90625 -240.960938 161.5625 -233.765625 C 165.21875 -226.566406 167.046875 -218.367188 167.046875 -209.171875 Z M 108.296875 -190.40625 C 108.296875 -194.425781 107.054688 -197.378906 104.578125 -199.265625 C 102.109375 -201.148438 98.867188 -202.09375 94.859375 -202.09375 C 91.546875 -202.09375 88.0625 -201.382812 84.40625 -199.96875 C 80.75 -198.550781 77.625 -196.664062 75.03125 -194.3125 C 74.320312 -193.601562 73.671875 -191.59375 73.078125 -188.28125 C 72.492188 -184.976562 72.023438 -181.265625 71.671875 -177.140625 C 71.316406 -173.015625 71.078125 -169.117188 70.953125 -165.453125 C 70.835938 -161.796875 70.78125 -159.378906 70.78125 -158.203125 C 70.78125 -157.734375 70.78125 -156.96875 70.78125 -155.90625 C 70.78125 -154.84375 70.835938 -153.71875 70.953125 -152.53125 C 71.078125 -151.351562 71.253906 -150.289062 71.484375 -149.34375 C 71.722656 -148.40625 72.082031 -147.9375 72.5625 -147.9375 C 76.570312 -147.9375 80.695312 -149.410156 84.9375 -152.359375 C 89.1875 -155.316406 93.019531 -158.976562 96.4375 -163.34375 C 99.863281 -167.707031 102.695312 -172.363281 104.9375 -177.3125 C 107.175781 -182.269531 108.296875 -186.632812 108.296875 -190.40625 Z M 106.890625 -88.125 C 106.890625 -92.132812 105.472656 -94.960938 102.640625 -96.609375 C 99.804688 -98.265625 96.617188 -99.09375 93.078125 -99.09375 C 89.773438 -99.09375 86.296875 -98.328125 82.640625 -96.796875 C 78.984375 -95.265625 75.972656 -93.4375 73.609375 -91.3125 C 72.910156 -90.84375 72.382812 -89.660156 72.03125 -87.765625 C 71.675781 -85.878906 71.4375 -83.816406 71.3125 -81.578125 C 71.195312 -79.335938 71.078125 -77.210938 70.953125 -75.203125 C 70.835938 -73.203125 70.78125 -71.847656 70.78125 -71.140625 C 70.78125 -70.671875 70.78125 -69.726562 70.78125 -68.3125 C 70.78125 -66.894531 70.835938 -65.414062 70.953125 -63.875 C 71.078125 -62.34375 71.316406 -60.925781 71.671875 -59.625 C 72.023438 -58.332031 72.4375 -57.6875 72.90625 -57.6875 C 76.207031 -57.6875 79.863281 -58.628906 83.875 -60.515625 C 87.882812 -62.410156 91.597656 -64.769531 95.015625 -67.59375 C 98.441406 -70.425781 101.273438 -73.671875 103.515625 -77.328125 C 105.765625 -80.984375 106.890625 -84.582031 106.890625 -88.125 Z M 106.890625 -88.125 "/></g></g><g transform="translate(185.691145, 309.649961)"><g><path d="M 181.21875 -234.296875 C 181.21875 -225.804688 180.15625 -216.3125 178.03125 -205.8125 C 175.90625 -195.3125 173.25 -184.632812 170.0625 -173.78125 C 166.875 -162.925781 163.453125 -152.363281 159.796875 -142.09375 C 156.140625 -131.832031 152.894531 -122.570312 150.0625 -114.3125 C 148.175781 -109.125 146.113281 -102.695312 143.875 -95.03125 C 141.632812 -87.363281 139.035156 -79.28125 136.078125 -70.78125 C 133.128906 -62.289062 129.882812 -53.796875 126.34375 -45.296875 C 122.8125 -36.804688 118.921875 -29.195312 114.671875 -22.46875 C 110.421875 -15.75 105.757812 -10.265625 100.6875 -6.015625 C 95.613281 -1.765625 90.128906 0.359375 84.234375 0.359375 C 79.273438 0.359375 74.492188 -1.878906 69.890625 -6.359375 C 65.296875 -10.847656 60.929688 -16.570312 56.796875 -23.53125 C 52.671875 -30.5 48.78125 -38.285156 45.125 -46.890625 C 41.46875 -55.503906 38.164062 -63.941406 35.21875 -72.203125 C 32.269531 -80.460938 29.789062 -88.128906 27.78125 -95.203125 C 25.78125 -102.285156 24.304688 -107.710938 23.359375 -111.484375 C 18.640625 -129.890625 14.15625 -148.472656 9.90625 -167.234375 C 5.664062 -185.992188 3.546875 -204.8125 3.546875 -223.6875 C 3.546875 -228.40625 3.78125 -233.300781 4.25 -238.375 C 4.71875 -243.445312 5.894531 -248.101562 7.78125 -252.34375 C 9.675781 -256.59375 12.332031 -260.070312 15.75 -262.78125 C 19.164062 -265.5 23.941406 -266.859375 30.078125 -266.859375 C 35.273438 -266.859375 40.054688 -263.96875 44.421875 -258.1875 C 48.785156 -252.40625 52.734375 -244.910156 56.265625 -235.703125 C 59.804688 -226.503906 63.050781 -216.242188 66 -204.921875 C 68.957031 -193.597656 71.734375 -182.445312 74.328125 -171.46875 C 76.921875 -160.5 79.394531 -150.238281 81.75 -140.6875 C 84.113281 -131.132812 86.472656 -123.523438 88.828125 -117.859375 C 90.242188 -122.578125 92.304688 -129.476562 95.015625 -138.5625 C 97.734375 -147.644531 100.921875 -157.613281 104.578125 -168.46875 C 108.242188 -179.320312 112.257812 -190.46875 116.625 -201.90625 C 120.988281 -213.351562 125.585938 -223.738281 130.421875 -233.0625 C 135.253906 -242.382812 140.265625 -249.992188 145.453125 -255.890625 C 150.648438 -261.785156 155.960938 -264.734375 161.390625 -264.734375 C 165.398438 -264.734375 168.703125 -263.789062 171.296875 -261.90625 C 173.890625 -260.019531 175.894531 -257.539062 177.3125 -254.46875 C 178.726562 -251.40625 179.734375 -248.101562 180.328125 -244.5625 C 180.921875 -241.019531 181.21875 -237.597656 181.21875 -234.296875 Z M 181.21875 -234.296875 "/></g></g></g></svg>